<svg id="Layer_1" data-name="Layer 1" xmlns="http://www.w3.org/2000/svg" viewBox="0 0 42.6 42.6"><defs><style>.cls-1{fill:#ffe600;}.cls-2{fill:#cf0000;}.cls-2,.cls-3{fill-rule:evenodd;}.cls-3{fill:#ffe100;}</style></defs><circle class="cls-1" cx="21.3" cy="21.3" r="6.85"/><path class="cls-2" d="M22.5,15.05a7.44,7.44,0,1,1-5.27,2.18,7.42,7.42,0,0,1,5.27-2.18Zm4.41,3a6.23,6.23,0,1,0,1.83,4.41A6.22,6.22,0,0,0,26.91,18.09Z" transform="translate(-1.2 -1.2)"/><path class="cls-2" d="M22.5,43.8A21.3,21.3,0,1,0,1.2,22.5,21.34,21.34,0,0,0,22.5,43.8Z" transform="translate(-1.2 -1.2)"/><path class="cls-3" d="M23.51,15.12,26.66,1.61a21.31,21.31,0,0,0-8.32,0l3.15,13.51a7.32,7.32,0,0,1,2,0Z" transform="translate(-1.2 -1.2)"/><path class="cls-3" d="M39.68,9.91,28.26,17.77a7.59,7.59,0,0,1,.9,1.4L41.55,13A21.22,21.22,0,0,0,39.68,9.91Z" transform="translate(-1.2 -1.2)"/><path class="cls-3" d="M43.69,20.38,29.91,21.76a6.86,6.86,0,0,1,0,1.48l13.78,1.38a20.48,20.48,0,0,0,0-4.24Z" transform="translate(-1.2 -1.2)"/><path class="cls-3" d="M41.55,32l-12.39-6.2a7.59,7.59,0,0,1-.9,1.4l11.42,7.86A21.22,21.22,0,0,0,41.55,32Z" transform="translate(-1.2 -1.2)"/><path class="cls-3" d="M26.66,43.39,23.51,29.88a7.32,7.32,0,0,1-2,0L18.34,43.39a21.31,21.31,0,0,0,8.32,0Z" transform="translate(-1.2 -1.2)"/><path class="cls-3" d="M5.32,35.09l11.42-7.86a7.59,7.59,0,0,1-.9-1.4L3.45,32A22.15,22.15,0,0,0,5.32,35.09Z" transform="translate(-1.2 -1.2)"/><path class="cls-3" d="M1.31,24.62l13.78-1.38a6.87,6.87,0,0,1,0-1.48L1.31,20.38a20.48,20.48,0,0,0,0,4.24Z" transform="translate(-1.2 -1.2)"/><path class="cls-3" d="M3.45,13l12.39,6.2a7.59,7.59,0,0,1,.9-1.4L5.32,9.91A22.15,22.15,0,0,0,3.45,13Z" transform="translate(-1.2 -1.2)"/><path class="cls-3" d="M16.92,19.71a6.12,6.12,0,0,0-.63,2.17c0,.2,0,.41,0,.62s0,.42,0,.62a6.06,6.06,0,0,0,.63,2.17,6.13,6.13,0,0,0,.82,1.25c.11.13.23.25.35.37a6.18,6.18,0,0,0,3.67,1.79,6.87,6.87,0,0,0,1.48,0,6.18,6.18,0,0,0,3.67-1.79c.12-.12.24-.24.35-.37a6.13,6.13,0,0,0,.82-1.25,6.06,6.06,0,0,0,.63-2.17c0-.2,0-.41,0-.62s0-.42,0-.62a6.33,6.33,0,0,0-1.45-3.42c-.11-.13-.23-.25-.35-.37a6.18,6.18,0,0,0-3.67-1.79,6.87,6.87,0,0,0-1.48,0,6.18,6.18,0,0,0-3.67,1.79c-.12.12-.24.24-.35.37A6.13,6.13,0,0,0,16.92,19.71Z" transform="translate(-1.2 -1.2)"/></svg>