<svg id="Layer_1" data-name="Layer 1" xmlns="http://www.w3.org/2000/svg" viewBox="0 0 42.48 42.48"><defs><style>.cls-1{fill:#fff;}.cls-1,.cls-2,.cls-3{fill-rule:evenodd;}.cls-2{fill:#d6212a;}.cls-3{fill:#233f88;}</style></defs><path class="cls-1" d="M22.5,43.74A21.24,21.24,0,1,0,1.26,22.5,21.28,21.28,0,0,0,22.5,43.74Z" transform="translate(-1.26 -1.26)"/><path class="cls-2" d="M33.74,4.48H11.26a21.23,21.23,0,0,1,22.48,0Z" transform="translate(-1.26 -1.26)"/><path class="cls-2" d="M40.39,11H4.61A21.72,21.72,0,0,1,7.17,7.8H37.83A21.72,21.72,0,0,1,40.39,11Z" transform="translate(-1.26 -1.26)"/><path class="cls-2" d="M43.17,17.6H1.83a20.09,20.09,0,0,1,1-3.24H42.12A20.09,20.09,0,0,1,43.17,17.6Z" transform="translate(-1.26 -1.26)"/><path class="cls-2" d="M43.68,24.17H1.32c0-.55-.06-1.11-.06-1.67s0-1.06.06-1.58H43.68c0,.52.06,1,.06,1.58S43.72,23.62,43.68,24.17Z" transform="translate(-1.26 -1.26)"/><path class="cls-2" d="M42.09,30.73H2.91a22.05,22.05,0,0,1-1.06-3.25h41.3A22.05,22.05,0,0,1,42.09,30.73Z" transform="translate(-1.26 -1.26)"/><path class="cls-2" d="M37.74,37.29H7.26a21.91,21.91,0,0,1-2.59-3.24H40.33A21.91,21.91,0,0,1,37.74,37.29Z" transform="translate(-1.26 -1.26)"/><path class="cls-2" d="M11.21,40.49H33.79a21.23,21.23,0,0,1-22.58,0Z" transform="translate(-1.26 -1.26)"/><path class="cls-3" d="M22.5,1.26V24.17H1.32c0-.55-.06-1.11-.06-1.67A21.24,21.24,0,0,1,22.5,1.26Z" transform="translate(-1.26 -1.26)"/><path class="cls-1" d="M1.52,19.16h1l-.81.59L2,20.7l-.59-.43C1.42,19.9,1.46,19.53,1.52,19.16Z" transform="translate(-1.26 -1.26)"/><polygon class="cls-1" points="5.37 7.87 5.67 8.82 6.67 8.82 5.86 9.41 6.17 10.36 5.37 9.77 4.56 10.36 4.87 9.41 4.06 8.82 5.06 8.82 5.37 7.87"/><path class="cls-1" d="M4.09,11.9l.14.42h1l-.81.58.31.95-.81-.59-.81.59.06-.16C3.45,13.08,3.76,12.48,4.09,11.9Z" transform="translate(-1.26 -1.26)"/><polygon class="cls-1" points="5.37 12.41 5.67 13.36 6.67 13.36 5.86 13.95 6.17 14.9 5.37 14.31 4.56 14.9 4.87 13.95 4.06 13.36 5.06 13.36 5.37 12.41"/><polygon class="cls-1" points="2.66 14.65 2.97 15.6 3.97 15.6 3.16 16.18 3.47 17.13 2.66 16.54 1.85 17.13 2.17 16.18 1.36 15.6 2.35 15.6 2.66 14.65"/><polygon class="cls-1" points="5.37 16.95 5.67 17.9 6.67 17.9 5.86 18.49 6.17 19.44 5.37 18.85 4.56 19.44 4.87 18.49 4.06 17.9 5.06 17.9 5.37 16.95"/><polygon class="cls-1" points="2.66 19.19 2.97 20.14 3.97 20.14 3.16 20.72 3.47 21.67 2.66 21.09 1.85 21.67 2.17 20.72 1.36 20.14 2.35 20.14 2.66 19.19"/><polygon class="cls-1" points="10.76 3.33 11.06 4.28 12.06 4.28 11.26 4.87 11.56 5.82 10.76 5.23 9.95 5.82 10.26 4.87 9.45 4.28 10.45 4.28 10.76 3.33"/><polygon class="cls-1" points="8.05 5.57 8.36 6.52 9.36 6.52 8.55 7.1 8.86 8.05 8.05 7.46 7.25 8.05 7.56 7.1 6.75 6.52 7.75 6.52 8.05 5.57"/><polygon class="cls-1" points="10.76 7.87 11.06 8.82 12.06 8.82 11.26 9.41 11.56 10.36 10.76 9.77 9.95 10.36 10.26 9.41 9.45 8.82 10.45 8.82 10.76 7.87"/><polygon class="cls-1" points="8.05 10.11 8.36 11.06 9.36 11.06 8.55 11.64 8.86 12.59 8.05 12 7.25 12.59 7.56 11.64 6.75 11.06 7.75 11.06 8.05 10.11"/><polygon class="cls-1" points="10.76 12.41 11.06 13.36 12.06 13.36 11.26 13.95 11.56 14.9 10.76 14.31 9.95 14.9 10.26 13.95 9.45 13.36 10.45 13.36 10.76 12.41"/><polygon class="cls-1" points="8.05 14.65 8.36 15.6 9.36 15.6 8.55 16.18 8.86 17.13 8.05 16.54 7.25 17.13 7.56 16.18 6.75 15.6 7.75 15.6 8.05 14.65"/><polygon class="cls-1" points="10.76 16.95 11.06 17.9 12.06 17.9 11.26 18.49 11.56 19.44 10.76 18.85 9.95 19.44 10.26 18.49 9.45 17.9 10.45 17.9 10.76 16.95"/><polygon class="cls-1" points="8.05 19.19 8.36 20.14 9.36 20.14 8.55 20.72 8.86 21.67 8.05 21.09 7.25 21.67 7.56 20.72 6.75 20.14 7.75 20.14 8.05 19.19"/><path class="cls-1" d="M14.84,2.69l.18.55h1l-.81.58.31.95-.8-.59-.81.59.31-.95-.75-.54.08,0h.86l.14-.44Z" transform="translate(-1.26 -1.26)"/><polygon class="cls-1" points="16.15 3.33 16.46 4.28 17.46 4.28 16.65 4.87 16.96 5.82 16.15 5.23 15.35 5.82 15.65 4.87 14.85 4.28 15.85 4.28 16.15 3.33"/><polygon class="cls-1" points="13.45 5.57 13.76 6.52 14.75 6.52 13.95 7.1 14.26 8.05 13.45 7.46 12.64 8.05 12.95 7.1 12.14 6.52 13.14 6.52 13.45 5.57"/><polygon class="cls-1" points="16.15 7.87 16.46 8.82 17.46 8.82 16.65 9.41 16.96 10.36 16.15 9.77 15.35 10.36 15.65 9.41 14.85 8.82 15.85 8.82 16.15 7.87"/><polygon class="cls-1" points="13.45 10.11 13.76 11.06 14.75 11.06 13.95 11.64 14.26 12.59 13.45 12 12.64 12.59 12.95 11.64 12.14 11.06 13.14 11.06 13.45 10.11"/><polygon class="cls-1" points="16.15 12.41 16.46 13.36 17.46 13.36 16.65 13.95 16.96 14.9 16.15 14.31 15.35 14.9 15.65 13.95 14.85 13.36 15.85 13.36 16.15 12.41"/><polygon class="cls-1" points="13.45 14.65 13.76 15.6 14.75 15.6 13.95 16.18 14.26 17.13 13.45 16.54 12.64 17.13 12.95 16.18 12.14 15.6 13.14 15.6 13.45 14.65"/><polygon class="cls-1" points="16.15 16.95 16.46 17.9 17.46 17.9 16.65 18.49 16.96 19.44 16.15 18.85 15.35 19.44 15.65 18.49 14.85 17.9 15.85 17.9 16.15 16.95"/><polygon class="cls-1" points="13.45 19.19 13.76 20.14 14.75 20.14 13.95 20.72 14.26 21.67 13.45 21.09 12.64 21.67 12.95 20.72 12.14 20.14 13.14 20.14 13.45 19.19"/><polygon class="cls-1" points="18.84 1.03 19.15 1.98 20.15 1.98 19.34 2.56 19.65 3.51 18.84 2.92 18.04 3.51 18.34 2.56 17.54 1.98 18.54 1.98 18.84 1.03"/><polygon class="cls-1" points="18.84 5.57 19.15 6.52 20.15 6.52 19.34 7.1 19.65 8.05 18.84 7.46 18.04 8.05 18.34 7.1 17.54 6.52 18.54 6.52 18.84 5.57"/><polygon class="cls-1" points="18.84 10.11 19.15 11.06 20.15 11.06 19.34 11.64 19.65 12.59 18.84 12 18.04 12.59 18.34 11.64 17.54 11.06 18.54 11.06 18.84 10.11"/><polygon class="cls-1" points="18.84 14.65 19.15 15.6 20.15 15.6 19.34 16.18 19.65 17.13 18.84 16.54 18.04 17.13 18.34 16.18 17.54 15.6 18.54 15.6 18.84 14.65"/><polygon class="cls-1" points="18.84 19.19 19.15 20.14 20.15 20.14 19.34 20.72 19.65 21.67 18.84 21.09 18.04 21.67 18.34 20.72 17.54 20.14 18.54 20.14 18.84 19.19"/></svg>